<svg xmlns="http://www.w3.org/2000/svg" width="1024" height="1024" viewBox="0 0 1024 1024" version="1.1">
	<path d="M 534.734 48.284 C 526.191 61.322, 513.107 94.676, 507.104 118.716 C 501.507 141.136, 497 170.491, 497 184.531 C 497 188.515, 495.580 188.449, 494.569 184.417 C 494.209 182.986, 492.060 177.694, 489.792 172.657 C 466.750 121.479, 422.903 92.595, 358.099 85.905 C 341.398 84.181, 302.311 85.277, 284.500 87.969 C 267.833 90.488, 249.025 94.575, 247.617 95.983 C 245.964 97.636, 252.287 126.631, 258.430 145.569 C 269.374 179.311, 285.780 206.847, 308.565 229.717 L 321.733 242.933 318.117 244.104 C 303.295 248.903, 284.083 263.114, 273.060 277.433 C 264.114 289.055, 256.372 307.147, 254.112 321.717 C 251.814 336.529, 253.206 355.071, 257.611 368.335 C 259.181 373.062, 259.165 373.295, 257.093 375.856 C 245.005 390.799, 238.753 402.486, 235.083 417 C 232.244 428.227, 231.336 445.267, 232.998 456.103 C 236.325 477.793, 246.044 496.914, 262.251 513.653 L 267.239 518.805 266.166 525.153 C 265.220 530.751, 264.686 540.019, 264.921 546.750 L 265 549 295 549 L 325 549 325 461 L 325 373 376 373 L 427 373 427 461 L 427 549 464.799 549 L 502.598 549 503.812 527.250 C 508.572 441.925, 526.783 384.181, 552.295 373.521 C 561.424 369.707, 571.354 373.086, 580.201 383.018 C 591.002 395.144, 599.705 416.079, 607.839 449.500 C 610.114 458.850, 613.835 474.150, 616.107 483.500 C 623.674 514.642, 631.154 532.793, 640.421 542.501 C 649.810 552.336, 658.216 552.310, 667.658 542.417 C 678.007 531.574, 686.346 509.897, 695.517 470 C 708.617 413.010, 715.582 394.636, 729.192 381.161 C 738.638 371.809, 750.390 370.350, 760.353 377.295 C 763.809 379.703, 764.055 379.418, 767.076 369.502 C 772.024 353.264, 773.385 336.141, 770.932 321 C 766.874 295.958, 751.697 271.798, 730.352 256.404 C 724.498 252.182, 706.538 243, 704.134 243 C 701.922 243, 703.219 241.423, 710.717 235 C 739.444 210.390, 764.348 163.866, 774.081 116.627 C 777.490 100.080, 777.689 96.436, 775.250 95.141 C 772.840 93.861, 755.135 90.257, 739.500 87.863 C 722.596 85.274, 682.277 84.208, 665.942 85.917 C 608.005 91.979, 566.314 116.508, 541.860 158.920 C 535.513 169.929, 530.352 182.227, 526.537 195.439 C 525.117 200.355, 523.713 204.620, 523.417 204.917 C 522.548 205.785, 524.016 180.552, 525.593 167.500 C 529.892 131.928, 541.078 95.126, 556.114 67.093 C 558.299 63.019, 559.729 59.335, 559.293 58.905 C 558.397 58.023, 537.303 46, 536.652 46 C 536.420 46, 535.557 47.028, 534.734 48.284 M 316.500 135.692 C 333.169 144.647, 363.908 163.618, 386.299 178.770 C 416.426 199.157, 435.527 214.565, 461.668 239.571 L 478.835 255.993 485.168 252.997 C 488.650 251.350, 492.063 250.001, 492.750 250.001 C 495.378 249.999, 493.616 247.753, 481.401 235.538 C 437.537 191.675, 386.183 159.267, 326.667 137.891 C 315.306 133.811, 311.443 132.975, 316.500 135.692 M 694 139.440 C 662.159 151.154, 636.713 163.828, 609.089 181.733 C 584.590 197.612, 566.307 212.416, 544.188 234.286 C 531.293 247.034, 530.049 248.563, 531.629 249.718 C 532.593 250.423, 533.973 251, 534.696 251 C 535.419 251, 538.317 252.113, 541.136 253.473 L 546.263 255.946 556.382 245.644 C 591.006 210.390, 634.678 178.056, 694 143.753 C 702.525 138.823, 709.688 134.612, 709.917 134.395 C 710.998 133.371, 707.398 134.512, 694 139.440 M 330.714 257.077 C 308.222 263.492, 290.680 277.325, 278.819 298 C 277.399 300.475, 274.754 306.775, 272.940 312 C 270.057 320.308, 269.588 323.092, 269.206 334.180 C 268.729 347.999, 270.107 356.841, 274.614 368.869 C 275.926 372.372, 277 375.851, 277 376.599 C 277 377.348, 274.260 380.983, 270.911 384.679 C 263.163 393.228, 259.746 398.221, 255.457 407.256 C 248.587 421.731, 246.391 440.298, 249.569 457.050 C 253.121 475.777, 260 488.260, 274.770 502.782 L 285.227 513.065 283.595 519.561 C 282.698 523.133, 281.683 528.744, 281.339 532.028 L 280.715 538 297.358 538 L 314 538 314 450 L 314 362 376 362 L 438 362 438 450 L 438 538 464.901 538 L 491.803 538 492.446 526.250 C 496.752 447.587, 513.509 389.212, 537.405 369.632 C 544.957 363.443, 550.242 361.595, 560.500 361.553 C 568.428 361.521, 570.201 361.860, 575.388 364.396 C 590.956 372.009, 603.775 392.628, 613.003 424.897 C 615.142 432.379, 619.847 450.875, 623.457 466 C 627.067 481.125, 631.428 497.775, 633.147 503 C 638.935 520.586, 646.757 534.788, 652.205 537.606 C 655.148 539.128, 655.213 539.102, 659.181 534.821 C 663.545 530.114, 671.638 514.327, 674.982 504 C 676.831 498.290, 681.092 481.417, 692.123 436.125 C 700.107 403.340, 712.456 378.357, 725.109 369.388 C 732.791 363.943, 735.973 362.780, 744.679 362.237 L 752.984 361.719 754.080 358.110 C 754.683 356.124, 755.419 348.590, 755.715 341.367 C 756.316 326.688, 754.860 317.502, 750.195 306.562 C 739.676 281.889, 720.400 264.679, 695.185 257.446 L 685.905 254.784 674.689 260.300 C 658.582 268.223, 640.939 273.699, 628.500 274.637 L 621.500 275.164 615.500 270.597 C 596.999 256.515, 572.493 256.636, 554.612 270.899 C 549.659 274.851, 545.855 274.882, 540.152 271.017 C 531.341 265.046, 525.710 263.527, 512.500 263.556 C 501.684 263.579, 499.845 263.855, 493.860 266.353 C 490.207 267.878, 485.733 270.222, 483.915 271.562 C 480.121 274.362, 474.901 274.758, 472.568 272.425 C 469.462 269.320, 459.385 263.892, 453.145 261.964 C 439.296 257.685, 423.120 260.727, 410.395 270.004 C 404.316 274.437, 402.976 274.998, 398.521 274.985 C 388.162 274.955, 368.205 268.997, 351.243 260.872 C 344.501 257.642, 338.651 255.032, 338.243 255.071 C 337.834 255.110, 334.446 256.013, 330.714 257.077 M 555.297 385.014 C 545.280 389.047, 533.202 414.484, 525.627 447.500 C 519.755 473.098, 515.045 519.561, 515.010 552.250 L 515 561 465 561 L 415 561 415 473 L 415 385 376 385 L 337 385 337 473 L 337 561 302 561 C 270.561 561, 267 561.163, 267 562.602 C 267 565.268, 272.749 581.560, 275.864 587.723 C 285.342 606.473, 302.193 621.863, 323.251 631 L 331.317 634.500 333.112 641.092 C 338.815 662.040, 353.017 681.863, 370.882 693.813 C 387.412 704.870, 402.353 709.203, 422.974 708.917 L 434.448 708.759 439.974 715.351 C 449.487 726.700, 460.011 734.800, 473.327 741.019 C 500.745 753.827, 533.732 752.144, 560 736.598 C 570.092 730.626, 579.876 722.269, 585.435 714.875 L 590.017 708.779 602.319 708.937 C 617.503 709.133, 627.209 707.289, 639.722 701.830 C 650.730 697.028, 658.277 691.970, 666.843 683.656 C 677.914 672.910, 689.380 653.532, 692.156 640.878 C 692.804 637.920, 693.666 635.117, 694.069 634.648 C 694.473 634.180, 698.410 632.320, 702.819 630.515 C 734.047 617.732, 756.017 587.200, 759.994 551.056 C 761.082 541.166, 760.969 538.490, 758.890 524.943 L 757.884 518.385 764.534 511.502 C 772.055 503.718, 777.236 496.456, 781.977 487.053 C 786.830 477.429, 787.886 473.909, 786.793 471 C 786.276 469.625, 784.054 462.200, 781.855 454.500 C 770.676 415.358, 766.160 402.911, 759.896 393.972 C 755.342 387.475, 751.620 385, 746.399 385 C 732.277 385, 721.060 409.334, 708.371 467.500 C 698.954 510.666, 689.265 535.852, 676.864 549.401 C 661.967 565.675, 646.287 565.683, 631.077 549.423 C 619.986 537.567, 611.242 515.757, 602.572 478.322 C 592.037 432.839, 588.790 421.819, 581.147 405.617 C 572.822 387.968, 564.478 381.317, 555.297 385.014 M 556.940 398.064 C 550.472 404.988, 542.960 423.680, 537.473 446.500 C 531.293 472.206, 527.408 507.369, 526.342 547.250 L 525.680 572 464.840 572 L 404 572 404 484 L 404 396 376 396 L 348 396 348 484 L 348 572 317.500 572 C 297.338 572, 287 572.347, 287 573.025 C 287 575.589, 294.343 588.094, 299.168 593.746 C 309.521 605.874, 320.992 613.632, 335.777 618.504 C 340.329 620.004, 344.433 621.967, 344.897 622.866 C 345.360 623.765, 346.515 628.100, 347.462 632.500 C 350.944 648.674, 361.289 666.085, 373.246 675.893 C 390.246 689.840, 409.372 695.105, 434.090 692.645 L 442.681 691.790 446.957 698.145 C 470.868 733.679, 516.029 743.962, 552.908 722.269 C 561.176 717.405, 573.537 705.759, 578 698.627 C 579.925 695.551, 582.442 692.771, 583.593 692.448 C 584.745 692.126, 589.416 692.372, 593.974 692.996 C 619.837 696.538, 646.979 685.101, 662.919 663.947 C 670.589 653.768, 674.432 645.774, 677.510 633.594 C 678.887 628.146, 680.495 623.108, 681.083 622.400 C 681.670 621.692, 685.155 620.124, 688.826 618.916 C 719.169 608.932, 739.768 583.725, 744.083 551.299 C 745.314 542.052, 744.344 530.633, 741.307 518.629 L 739.822 512.758 749.411 503.629 C 759.904 493.640, 768.651 480.955, 771.686 471.327 L 773.384 465.940 770.044 454.220 C 760.359 420.243, 752.204 399.250, 747.767 396.876 C 744.856 395.317, 743.235 397.293, 737.407 409.500 C 731.077 422.759, 726.932 436.560, 719.537 469 C 708.491 517.458, 700.081 539.549, 686.407 556.029 C 673.557 571.514, 654.459 576.935, 638.497 569.627 C 631.012 566.200, 626.857 562.735, 619.762 554 C 608.926 540.661, 601.090 520.670, 592.519 484.500 C 584.115 449.037, 577.977 426.776, 573.937 417.106 C 569.815 407.241, 565.353 399.534, 562.013 396.512 C 560.114 394.793, 559.948 394.844, 556.940 398.064" stroke="none" fill="#000000" fill-rule="evenodd"/>
</svg>